<?xml version="1.0" encoding="UTF-8" standalone="no"?>
<!-- Created with Inkscape (http://www.inkscape.org/) -->

<svg
   xmlns:dc="http://purl.org/dc/elements/1.1/"
   xmlns:cc="http://creativecommons.org/ns#"
   xmlns:rdf="http://www.w3.org/1999/02/22-rdf-syntax-ns#"
   xmlns:svg="http://www.w3.org/2000/svg"
   xmlns="http://www.w3.org/2000/svg"
   xmlns:sodipodi="http://sodipodi.sourceforge.net/DTD/sodipodi-0.dtd"
   xmlns:inkscape="http://www.inkscape.org/namespaces/inkscape"
   width="453.5433"
   height="340.15747"
   id="svg2"
   sodipodi:version="0.32"
   inkscape:version="0.91 r13725"
   sodipodi:docname="before_clustering.svg"
   version="1.0"
   viewBox="0 0 128 95.999997"
   inkscape:export-filename="/home/comm/clustering/presentation/before_clustering.png"
   inkscape:export-xdpi="167.573"
   inkscape:export-ydpi="167.573">
  <defs
     id="defs4" />
  <sodipodi:namedview
     id="base"
     pagecolor="#ffffff"
     bordercolor="#666666"
     borderopacity="1.0"
     inkscape:pageopacity="0.0"
     inkscape:pageshadow="2"
     inkscape:zoom="1.64"
     inkscape:cx="107.56433"
     inkscape:cy="145.6885"
     inkscape:document-units="mm"
     inkscape:current-layer="layer1"
     inkscape:window-width="988"
     inkscape:window-height="724"
     inkscape:window-x="1144"
     inkscape:window-y="212"
     width="12.8cm"
     height="9.6cm"
     units="cm"
     showgrid="true"
     grid_units="mm"
     inkscape:object-paths="false"
     inkscape:grid-points="true"
     inkscape:grid-bbox="true"
     inkscape:guide-points="true"
     showguides="true"
     inkscape:guide-bbox="true"
     inkscape:window-maximized="0"
     inkscape:snap-text-baseline="false">
    <sodipodi:guide
       orientation="vertical"
       position="56.476527"
       id="guide3573" />
    <sodipodi:guide
       orientation="horizontal"
       position="11.035643"
       id="guide3579" />
    <sodipodi:guide
       orientation="horizontal"
       position="24.018753"
       id="guide3886" />
    <sodipodi:guide
       orientation="horizontal"
       position="303.15561"
       id="guide4081" />
    <inkscape:grid
       id="GridFromPre046Settings"
       type="xygrid"
       originx="0px"
       originy="0px"
       spacingx="2mm"
       spacingy="2mm"
       color="#3f3fff"
       empcolor="#3f3fff"
       opacity="0.15"
       empopacity="0.38"
       empspacing="5" />
  </sodipodi:namedview>
  <metadata
     id="metadata7">
    <rdf:RDF>
      <cc:Work
         rdf:about="">
        <dc:format>image/svg+xml</dc:format>
        <dc:type
           rdf:resource="http://purl.org/dc/dcmitype/StillImage" />
        <dc:title />
      </cc:Work>
    </rdf:RDF>
  </metadata>
  <g
     inkscape:label="Layer 1"
     inkscape:groupmode="layer"
     id="layer1"
     transform="translate(4.149475e-6,-698.0315)">
    <g
       id="g3448">
      <circle
         r="3.1749558"
         cy="712.91638"
         cx="40.977062"
         id="path3362"
         style="fill:#0000ff" />
      <circle
         r="3.1749558"
         style="fill:#0000ff"
         id="circle3364"
         cx="48.247959"
         cy="718.73309" />
      <circle
         r="3.1749558"
         cy="736.76489"
         cx="43.012909"
         id="circle3366"
         style="fill:#0000ff" />
      <circle
         r="3.1749558"
         style="fill:#0000ff"
         id="circle3368"
         cx="42.722076"
         cy="726.29486" />
      <circle
         r="3.1749558"
         cy="721.93231"
         cx="26.435255"
         id="circle3370"
         style="fill:#0000ff" />
      <circle
         r="3.1749558"
         style="fill:#0000ff"
         id="circle3372"
         cx="34.869495"
         cy="719.02399" />
      <circle
         r="3.1749558"
         cy="730.07568"
         cx="34.287827"
         id="circle3374"
         style="fill:#0000ff" />
      <circle
         r="3.1749558"
         style="fill:#0000ff"
         id="circle3376"
         cx="49.992977"
         cy="729.78479" />
    </g>
    <g
       id="g3438">
      <circle
         style="fill:#ff2a2a"
         id="circle3378"
         cx="41.332767"
         cy="751.29688"
         r="3.2653744" />
      <circle
         cy="754.28802"
         cx="50.60545"
         id="circle3380"
         style="fill:#ff2a2a"
         r="3.2653744" />
      <circle
         style="fill:#ff2a2a"
         id="circle3382"
         cx="45.819553"
         cy="773.13251"
         r="3.2653744" />
      <circle
         cy="763.26166"
         cx="50.60545"
         id="circle3384"
         style="fill:#ff2a2a"
         r="3.2653744" />
      <circle
         r="3.2653744"
         style="fill:#ff2a2a"
         id="circle3386"
         cx="31.461851"
         cy="755.18536" />
      <circle
         cy="765.65454"
         cx="30.265379"
         id="circle3388"
         style="fill:#ff2a2a"
         r="3.2653744" />
      <circle
         style="fill:#ff2a2a"
         id="circle3390"
         cx="39.238941"
         cy="764.7572"
         r="3.2653744" />
      <circle
         cy="766.85095"
         cx="58.083424"
         id="circle3392"
         style="fill:#ff2a2a"
         r="3.2653744" />
    </g>
    <g
       id="g4371"
       transform="translate(-1.3766938,-3.9579946)">
      <circle
         style="fill:#008000"
         id="circle3394"
         cx="85.268463"
         cy="727.7052"
         r="3.1749558" />
      <circle
         cy="738.68451"
         cx="93.399796"
         id="circle3396"
         style="fill:#008000"
         r="3.1749558" />
      <circle
         style="fill:#008000"
         id="circle3398"
         cx="91.778564"
         cy="762.05096"
         r="3.1749558" />
      <circle
         cy="748.99963"
         cx="80.474174"
         id="circle3400"
         style="fill:#008000"
         r="3.1749558" />
      <circle
         style="fill:#008000"
         id="circle3402"
         cx="72.447517"
         cy="736.72113"
         r="3.1749558" />
      <circle
         cy="738.80334"
         cx="83.118889"
         id="circle3404"
         style="fill:#008000"
         r="3.1749558" />
      <circle
         style="fill:#008000"
         id="circle3406"
         cx="80.300095"
         cy="762.41736"
         r="3.1749558" />
      <circle
         cy="752.14545"
         cx="93.079773"
         id="circle3408"
         style="fill:#008000"
         r="3.1749558" />
    </g>
    <rect
       style="fill:#00ffff;fill-opacity:0.04460826;stroke:#070000;stroke-width:1.28199995;stroke-linejoin:miter;stroke-miterlimit:4;stroke-dasharray:none;stroke-dashoffset:0;stroke-opacity:1"
       id="rect4497"
       width="107.99999"
       height="82"
       x="11.999995"
       y="704.03149" />
    <path
       style="fill:#241c1c;fill-opacity:0.04460826;stroke:#070000;stroke-width:2.76982903;stroke-linejoin:miter;stroke-miterlimit:4;stroke-dasharray:none;stroke-dashoffset:0;stroke-opacity:1"
       d="m 45.308235,166.78605 0,-142.682929 188.719515,0 188.71951,0 0,142.682929 0,142.68292 -188.71951,0 -188.719515,0 0,-142.68292 z M 167.74585,276.45427 c 7.57011,-3.66462 8.4344,-14.59411 1.56823,-19.83119 -1.81161,-1.38179 -2.97369,-1.73486 -6.25563,-1.90066 -4.73318,-0.23912 -7.22532,0.84221 -10.08553,4.3761 -3.37515,4.17012 -2.72796,12.11311 1.28247,15.73977 3.36195,3.04022 9.12286,3.7303 13.49046,1.61598 z m 43.94819,-22.50275 c 7.94155,-4.4634 7.66911,-16.20852 -0.47561,-20.5042 -3.41738,-1.80239 -6.94127,-1.81777 -10.41028,-0.0454 -3.85879,1.97149 -6.21599,5.18859 -6.58038,8.9809 -0.95089,9.896 8.86941,16.40043 17.46627,11.56872 l 0,1e-5 z m -97.79216,-4.69298 c 7.6972,-5.34413 6.41762,-16.92264 -2.27141,-20.55314 -8.96159,-3.7444 -18.312427,4.70918 -15.665668,14.16247 0.921982,3.293 4.237318,6.88706 7.299028,7.91267 3.26102,1.09238 7.80991,0.44156 10.63805,-1.522 z m 30.92,-2.65739 c 4.27502,-2.18096 6.70606,-7.73476 5.70993,-13.04457 -0.49611,-2.64451 -4.1159,-6.86478 -6.88082,-8.02228 -1.07917,-0.45178 -3.1371,-0.8154 -4.57317,-0.80803 -10.03854,0.0515 -15.46047,11.75806 -8.90421,19.22523 4.0238,4.58284 9.06977,5.49558 14.64827,2.64965 z m 38.75981,-4.53933 c 6.29706,-2.63108 9.10912,-9.69219 6.31212,-15.84978 -3.88506,-8.55293 -15.49556,-9.24582 -20.47843,-1.22211 -5.96054,9.59801 3.82632,21.39222 14.16631,17.07189 z m 100.85659,-17.33439 c 1.01784,-0.036 4.32742,-3.43491 5.40889,-5.55477 1.99466,-3.90987 1.2246,-9.68374 -1.72682,-12.94747 -2.73485,-3.02425 -8.70008,-4.34211 -12.74193,-2.81498 -4.17138,1.57605 -7.07367,5.95986 -7.07367,10.68453 0,7.31412 6.56172,12.68459 13.58885,11.12184 1.17378,-0.26104 2.31889,-0.48115 2.54468,-0.48915 z m 41.70844,-2.1433 c 3.75349,-2.1997 5.43403,-5.22987 5.43844,-9.80603 0.004,-4.53392 -2.05833,-8.11313 -5.76551,-10.0044 -5.2413,-2.67391 -11.96042,-0.99953 -15.11439,3.76645 -2.255,3.40753 -2.36875,8.81497 -0.25706,12.21984 3.22182,5.19483 10.38294,6.93927 15.69852,3.82414 z m -209.77667,-9.38324 c 11.42105,-5.18787 7.6581,-22.30717 -4.90328,-22.30717 -7.85759,0 -13.361615,7.188 -11.31732,14.77991 1.33371,4.95302 6.16815,8.64661 11.31732,8.64661 1.34147,0 3.54794,-0.50371 4.90328,-1.11935 z m 66.26681,-2.53924 c 6.70896,-1.86325 10.37197,-10.1868 7.21031,-16.38417 -3.2976,-6.46382 -11.16482,-8.62561 -17.09903,-4.69854 -6.63222,4.389 -6.81309,14.73575 -0.33518,19.17449 3.52457,2.41508 6.43978,2.95918 10.2239,1.90822 z m -30.5977,-11.57057 c 4.67997,-2.38754 7.22859,-8.97107 5.50023,-14.20804 -2.90492,-8.802 -14.8457,-10.57665 -20.57998,-3.05862 -1.53179,2.00829 -1.71215,2.73649 -1.71215,6.91285 0,4.17467 0.1807,4.90501 1.70955,6.90944 3.46354,4.54093 10.00477,6.03475 15.08235,3.44437 z m 179.3289,-11.86156 c 5.74596,-3.80249 6.45718,-13.49736 1.3303,-18.13363 -7.11465,-6.43384 -19.09744,-1.23365 -19.09744,8.28776 0,9.47055 9.97841,15.00021 17.76714,9.84587 z m -45.85509,-10.60308 c 8.1188,-3.8712 8.12231,-16.08253 0.006,-20.22326 -7.67205,-3.91399 -16.60428,1.53573 -16.60428,10.13059 0,8.74275 8.53964,13.93527 16.59846,10.09267 l -2.7e-4,0 z m -128.8115,-28.78162 c 2.13179,-0.80545 4.88878,-3.36872 6.0828,-5.6554 0.49707,-0.95192 0.90376,-3.19137 0.90376,-4.97654 0,-6.6707 -4.67153,-11.28049 -11.43159,-11.28049 -6.27631,0 -11.2165,4.96572 -11.2165,11.2745 0,6.34747 4.84216,11.27451 11.08836,11.28272 1.57115,0.002 3.62908,-0.28809 4.57317,-0.64479 z m 137.19512,-6.70732 c 6.32111,-2.38828 9.04034,-10.53018 5.52196,-16.53384 -2.0237,-3.45319 -5.42053,-5.37859 -9.489,-5.37859 -5.21724,0 -8.26542,1.80146 -10.53431,6.22571 -2.05702,4.01112 -0.94054,10.61305 2.25981,13.36261 3.2751,2.81379 8.38022,3.78302 12.24154,2.32411 z m 37.38726,-0.9029 c 2.08658,-1.06589 4.6665,-3.88669 5.44901,-5.95776 1.52712,-4.04185 0.20927,-10.00708 -2.81498,-12.74193 -4.86908,-4.40314 -13.00105,-3.59541 -17.0339,1.69193 -1.74603,2.28917 -2.60872,7.15771 -1.82303,10.28815 0.44695,1.7808 3.59943,5.55857 5.48335,6.57097 3.20984,1.72495 7.53653,1.78484 10.73955,0.14864 z m -74.81729,-6.75158 c 6.38524,-3.22615 8.61813,-10.06209 5.24631,-16.06144 -5.27438,-9.38449 -20.11534,-6.47228 -21.13576,4.14743 -0.51659,5.37637 1.78808,9.73642 6.20759,11.74367 3.08155,1.39956 7.10872,1.47042 9.68186,0.17034 z m -129.53258,-9.86567 c 4.40051,-2.01515 7.1297,-8.50591 5.56721,-13.24032 -0.94952,-2.87705 -4.01246,-6.3521 -6.5236,-7.40132 -4.74209,-1.98138 -11.2169,-0.11117 -13.95862,4.03186 -4.42867,6.69217 -0.87681,15.8828 6.80408,17.60593 2.78532,0.62486 5.22556,0.32516 8.11093,-0.99615 z m 54.65474,-0.67024 c 4.50291,-2.08478 7.0122,-5.81689 7.0122,-10.42935 0,-4.61247 -2.50929,-8.34458 -7.0122,-10.42936 -3.09003,-1.43063 -6.03678,-1.43381 -9.17156,-0.01 -9.33336,4.23956 -8.86824,17.71308 0.72961,21.13518 3.20484,1.14269 5.5586,1.06835 8.44195,-0.26659 z m -24.77669,-12.7171 c 4.41739,-2.08162 7.12743,-8.54009 5.56721,-13.267615 -0.94952,-2.877048 -4.01246,-6.352097 -6.5236,-7.401323 -9.40435,-3.929384 -19.07071,5.857579 -14.96118,15.147858 2.71992,6.14884 9.55462,8.51948 15.91757,5.52108 z m 143.50776,-8.10494 c 5.17384,-1.43692 8.71679,-6.547815 8.27041,-11.930522 -0.63682,-7.679227 -8.2143,-12.471793 -15.38762,-9.732278 -9.89181,3.777717 -9.83678,17.877918 0.0836,21.41597 2.84542,1.0148 4.10879,1.05914 7.03363,0.24683 z M 98.201845,95.11645 c 3.023695,-1.263378 4.383505,-2.563439 5.715705,-5.464549 2.74489,-5.977526 -0.0231,-13.320011 -5.865412,-15.558758 -7.608789,-2.91566 -15.722997,2.550743 -15.722997,10.592313 0,8.314141 8.138565,13.662525 15.872704,10.430994 z M 128.41778,84.700322 c 2.77131,-1.403334 4.04919,-2.649705 5.36997,-5.237544 3.55863,-6.9725 -1.17191,-15.566769 -8.92217,-16.20948 -4.29172,-0.355903 -5.90743,0.100501 -8.54072,2.412563 -2.94658,2.587125 -4.11767,5.073448 -4.11767,8.742138 0,4.569604 2.88137,9.006722 6.88153,10.597116 2.3713,0.942786 7.1753,0.785829 9.32906,-0.304793 z m 48.06782,-1.196183 c 3.92551,-2.008101 6.41938,-7.07048 5.78025,-11.733474 -1.22746,-8.95526 -12.03601,-13.035053 -18.66569,-7.045542 -6.96572,6.293113 -4.61928,17.038046 4.29133,19.651074 2.42503,0.711137 6.25991,0.322009 8.59411,-0.872058 z m -25.71032,-20.67077 c 2.48335,-1.284191 5.31274,-5.278766 5.8057,-8.196593 1.4955,-8.851798 -7.72074,-16.016864 -15.85115,-12.3233 -9.19084,4.175313 -9.34135,15.965148 -0.2643,20.703572 3.06349,1.599207 6.99757,1.529117 10.30975,-0.183679 z"
       id="path4555"
       inkscape:connector-curvature="0"
       transform="matrix(0.28222222,0,0,0.28222222,-4.149475e-6,698.0315)" />
    <path
       style="fill:#a0a0a0;stroke:none;stroke-width:1px;stroke-linecap:butt;stroke-linejoin:miter;stroke-opacity:1"
       d="m 88.905796,93.09058 c -2.657818,-1.64172 -3.762018,-3.108364 -4.539949,-6.030146 -0.975982,-3.665633 -0.0038,-6.803285 2.928788,-9.452726 7.118949,-6.431543 17.294485,-0.499512 15.725725,9.167623 -0.19977,1.231018 -0.87007,2.930623 -1.48955,3.776903 -2.56707,3.506875 -8.972198,4.794671 -12.625014,2.538346 z"
       id="path3417"
       inkscape:connector-curvature="0"
       transform="matrix(0.28222222,0,0,0.28222222,-4.149475e-6,698.0315)" />
    <path
       style="fill:#a0a0a0;stroke:none;stroke-width:1px;stroke-linecap:butt;stroke-linejoin:miter;stroke-opacity:1"
       d="m 117.24632,81.550524 c -4.51541,-4.515409 -4.50709,-10.303314 0.0207,-14.393899 2.14536,-1.938203 2.81551,-2.199737 5.63444,-2.198902 6.24731,0.0018 10.21358,3.649022 10.20937,9.388006 -0.004,5.95743 -3.72837,9.507225 -9.97799,9.511206 -3.32879,0.0021 -3.73854,-0.158424 -5.88652,-2.306411 z"
       id="path3419"
       inkscape:connector-curvature="0"
       transform="matrix(0.28222222,0,0,0.28222222,-4.149475e-6,698.0315)" />
    <path
       style="fill:#a0a0a0;stroke:none;stroke-width:1px;stroke-linecap:butt;stroke-linejoin:miter;stroke-opacity:1"
       d="m 141.34618,61.592176 c -7.26531,-3.927495 -7.90631,-12.132402 -1.3286,-17.006164 2.40317,-1.780629 8.16983,-1.790687 10.54363,-0.01839 2.76206,2.062175 4.04894,4.268172 4.30891,7.386415 0.27888,3.345116 -1.34826,6.814401 -4.1811,8.914701 -2.20221,1.632747 -6.97683,2.002458 -9.34284,0.723438 z"
       id="path3421"
       inkscape:connector-curvature="0"
       transform="matrix(0.28222222,0,0,0.28222222,-4.149475e-6,698.0315)" />
    <path
       style="fill:#a0a0a0;stroke:none;stroke-width:1px;stroke-linecap:butt;stroke-linejoin:miter;stroke-opacity:1"
       d="m 118.28616,122.62984 c -2.88876,-1.05497 -4.32424,-2.32707 -5.55671,-4.92431 -3.07866,-6.48781 1.55294,-13.70259 8.7983,-13.70534 3.56171,-0.001 5.2855,0.92175 7.74649,4.14833 2.43981,3.19881 2.6182,5.95892 0.63765,9.86632 -2.19719,4.33483 -7.08255,6.27415 -11.62573,4.615 z"
       id="path3423"
       inkscape:connector-curvature="0"
       transform="matrix(0.28222222,0,0,0.28222222,-4.149475e-6,698.0315)" />
    <path
       style="fill:#a0a0a0;stroke:none;stroke-width:1px;stroke-linecap:butt;stroke-linejoin:miter;stroke-opacity:1"
       d="m 147.1732,108.7413 c -3.62196,-1.88102 -5.05721,-4.00087 -5.37311,-7.93607 -0.2997,-3.733239 1.14839,-6.47235 4.6799,-8.852237 2.32837,-1.569086 6.69762,-1.860415 9.1662,-0.611176 2.56155,1.296278 5.5157,5.735927 5.5157,8.289257 0,7.462826 -7.61344,12.421126 -13.98869,9.110226 z"
       id="path3425"
       inkscape:connector-curvature="0"
       transform="matrix(0.28222222,0,0,0.28222222,-4.149475e-6,698.0315)" />
    <path
       style="fill:#a0a0a0;stroke:none;stroke-width:1px;stroke-linecap:butt;stroke-linejoin:miter;stroke-opacity:1"
       d="m 166.6854,81.91673 c -3.95035,-2.05842 -5.21863,-4.105543 -5.21863,-8.423369 0,-3.999848 1.10458,-6.027666 4.56697,-8.384146 6.29258,-4.282693 15.23864,1.333329 14.49256,9.097921 -0.68141,7.091591 -7.61504,10.953727 -13.8409,7.709594 z"
       id="path3427"
       inkscape:connector-curvature="0"
       transform="matrix(0.28222222,0,0,0.28222222,-4.149475e-6,698.0315)" />
    <path
       style="fill:#a0a0a0;stroke:none;stroke-width:1px;stroke-linecap:butt;stroke-linejoin:miter;stroke-opacity:1"
       d="m 173.02191,121.44993 c -6.17057,-2.79976 -7.60514,-10.89151 -2.78541,-15.71123 6.21485,-6.214852 16.53515,-1.86865 16.53515,6.96348 0,2.95416 -1.61548,5.87988 -4.37531,7.92392 -2.0585,1.5246 -6.89349,1.9495 -9.37443,0.82383 z"
       id="path3429"
       inkscape:connector-curvature="0"
       transform="matrix(0.28222222,0,0,0.28222222,-4.149475e-6,698.0315)" />
    <path
       style="fill:#a0a0a0;stroke:none;stroke-width:1px;stroke-linecap:butt;stroke-linejoin:miter;stroke-opacity:1"
       d="m 147.28437,145.44787 c -5.95762,-3.6324 -5.95762,-12.7669 0,-16.50538 1.58684,-0.99577 2.75922,-1.20358 5.81827,-1.03133 3.47036,0.19541 4.04241,0.42714 6.07704,2.46177 2.08834,2.08835 2.26308,2.54726 2.48843,6.53552 l 0.24238,4.28946 -2.73309,2.73309 c -2.61895,2.61895 -2.88287,2.733 -6.31942,2.73081 -2.50222,-0.002 -4.18707,-0.36855 -5.57361,-1.21394 z"
       id="path3431"
       inkscape:connector-curvature="0"
       transform="matrix(0.28222222,0,0,0.28222222,-4.149475e-6,698.0315)" />
    <path
       style="fill:#a0a0a0;stroke:none;stroke-width:1px;stroke-linecap:butt;stroke-linejoin:miter;stroke-opacity:1"
       d="m 107.00313,211.52686 c -1.11354,-0.56774 -2.75988,-1.99624 -3.65854,-3.17444 -1.35786,-1.78025 -1.63392,-2.76832 -1.63392,-5.84818 0,-4.511 1.6502,-7.23115 5.42749,-8.94659 3.31183,-1.50406 5.63415,-1.44939 8.92502,0.2101 6.69054,3.37384 7.23989,12.5004 1.03145,17.13567 -2.2186,1.65642 -7.43359,1.9786 -10.0915,0.62344 z"
       id="path3433"
       inkscape:connector-curvature="0"
       transform="matrix(0.28222222,0,0,0.28222222,-4.149475e-6,698.0315)" />
    <path
       style="fill:#a0a0a0;stroke:none;stroke-width:1px;stroke-linecap:butt;stroke-linejoin:miter;stroke-opacity:1"
       d="m 141.64019,197.36433 c -3.29304,-1.74992 -4.86896,-4.5236 -4.86626,-8.5648 0.004,-6.05431 3.62457,-9.81174 9.45845,-9.81608 5.82963,-0.004 10.05147,3.79337 10.05147,9.04172 0,3.55775 -2.06112,7.81638 -4.50397,9.30598 -2.48511,1.51537 -7.3207,1.53119 -10.13969,0.0332 z"
       id="path3435"
       inkscape:connector-curvature="0"
       transform="matrix(0.28222222,0,0,0.28222222,-4.149475e-6,698.0315)" />
    <path
       style="fill:#a0a0a0;stroke:none;stroke-width:1px;stroke-linecap:butt;stroke-linejoin:miter;stroke-opacity:1"
       d="m 175.47982,208.61923 c -2.5891,-1.12814 -5.54388,-4.70549 -6.03092,-7.30163 -0.94422,-5.03311 2.68534,-10.84739 7.31347,-11.71563 4.68021,-0.87801 8.3862,0.67998 11.13032,4.67916 1.18304,1.72413 1.38486,2.66512 1.18491,5.52457 -0.50855,7.27272 -7.19204,11.60469 -13.59778,8.81353 z"
       id="path3437"
       inkscape:connector-curvature="0"
       transform="matrix(0.28222222,0,0,0.28222222,-4.149475e-6,698.0315)" />
    <path
       style="fill:#a0a0a0;stroke:none;stroke-width:1px;stroke-linecap:butt;stroke-linejoin:miter;stroke-opacity:1"
       d="m 102.71631,248.67844 c -4.382781,-2.15941 -6.513193,-7.92835 -4.690428,-12.70119 2.804688,-7.34396 12.438468,-8.58794 17.286288,-2.23213 2.27,2.97613 2.3558,8.56508 0.17834,11.61808 -2.7445,3.84804 -8.60557,5.36914 -12.7742,3.31524 z"
       id="path3439"
       inkscape:connector-curvature="0"
       transform="matrix(0.28222222,0,0,0.28222222,-4.149475e-6,698.0315)" />
    <path
       style="fill:#a0a0a0;stroke:none;stroke-width:1px;stroke-linecap:butt;stroke-linejoin:miter;stroke-opacity:1"
       d="m 135.19989,245.83219 c -2.76306,-1.2517 -5.63926,-5.05673 -6.08892,-8.05526 -0.50072,-3.33909 1.27711,-7.46427 4.07772,-9.46171 1.68162,-1.19935 2.80491,-1.4682 6.13438,-1.4682 3.69469,0 4.25571,0.17106 5.99956,1.82927 2.63959,2.50996 3.64593,4.65442 3.63411,7.74411 -0.0124,3.2503 -2.06299,7.03962 -4.61644,8.53091 -2.60154,1.51938 -6.83115,1.927 -9.14041,0.88088 z"
       id="path3441"
       inkscape:connector-curvature="0"
       transform="matrix(0.28222222,0,0,0.28222222,-4.149475e-6,698.0315)" />
    <path
       style="fill:#a0a0a0;stroke:none;stroke-width:1px;stroke-linecap:butt;stroke-linejoin:miter;stroke-opacity:1"
       d="m 174.66753,240.17642 c -2.31057,-1.17752 -4.66342,-4.46063 -5.25541,-7.33325 -0.6375,-3.09342 0.63233,-6.53057 3.30457,-8.94477 3.97761,-3.59353 9.25773,-3.73221 13.11613,-0.34448 4.88882,4.29243 4.38423,11.94687 -1.05527,16.00804 -2.22613,1.66205 -7.4334,1.97854 -10.11002,0.61446 z"
       id="path3443"
       inkscape:connector-curvature="0"
       transform="matrix(0.28222222,0,0,0.28222222,-4.149475e-6,698.0315)" />
    <path
       style="fill:#a0a0a0;stroke:none;stroke-width:1px;stroke-linecap:butt;stroke-linejoin:miter;stroke-opacity:1"
       d="m 157.5467,274.86436 c -3.24509,-1.65471 -4.52778,-3.86813 -4.77358,-8.23732 -0.24843,-4.41613 0.96802,-6.97901 4.26735,-8.99063 2.85577,-1.74119 8.16183,-1.66488 10.82905,0.15573 5.85937,3.99955 5.65466,13.30504 -0.36866,16.75826 -2.90635,1.66623 -7.04613,1.79681 -9.95416,0.31396 z"
       id="path3445"
       inkscape:connector-curvature="0"
       transform="matrix(0.28222222,0,0,0.28222222,-4.149475e-6,698.0315)" />
    <path
       style="fill:#a0a0a0;stroke:none;stroke-width:1px;stroke-linecap:butt;stroke-linejoin:miter;stroke-opacity:1"
       d="m 201.71203,253.02055 c -4.04716,-2.11024 -5.79404,-5.00471 -5.79404,-9.60036 0,-3.33681 1.87885,-6.28813 5.20096,-8.16971 9.89385,-5.60369 19.90267,7.63168 11.73155,15.51347 -3.38415,3.26433 -7.57675,4.11373 -11.13847,2.2566 z"
       id="path3447"
       inkscape:connector-curvature="0"
       transform="matrix(0.28222222,0,0,0.28222222,-4.149475e-6,698.0315)" />
    <path
       style="fill:#a0a0a0;stroke:none;stroke-width:1px;stroke-linecap:butt;stroke-linejoin:miter;stroke-opacity:1"
       d="m 246.67461,131.42348 c -3.29994,-2.012 -4.51579,-4.57431 -4.2672,-8.99286 0.18786,-3.33907 0.4621,-4.06244 2.23267,-5.8892 3.88675,-4.01011 10.20085,-4.15326 14.03588,-0.31823 4.73899,4.73899 3.53152,12.43865 -2.43447,15.52378 -2.49538,1.29041 -7.17965,1.13202 -9.56688,-0.32349 z"
       id="path3449"
       inkscape:connector-curvature="0"
       transform="matrix(0.28222222,0,0,0.28222222,-4.149475e-6,698.0315)" />
    <path
       style="fill:#a0a0a0;stroke:none;stroke-width:1px;stroke-linecap:butt;stroke-linejoin:miter;stroke-opacity:1"
       d=""
       id="path3451"
       inkscape:connector-curvature="0"
       transform="matrix(0.28222222,0,0,0.28222222,-4.149475e-6,698.0315)" />
    <path
       style="fill:#a0a0a0;stroke:none;stroke-width:1px;stroke-linecap:butt;stroke-linejoin:miter;stroke-opacity:1"
       d="m 293.14386,100.10846 c -5.84913,-2.653909 -7.53145,-10.448786 -3.29616,-15.27251 2.35956,-2.687396 4.79387,-3.634976 8.43847,-3.284775 11.6694,1.121281 11.36455,18.257657 -0.34105,19.171365 -1.69618,0.1324 -3.7291,-0.12761 -4.80126,-0.61408 z"
       id="path3453"
       inkscape:connector-curvature="0"
       transform="matrix(0.28222222,0,0,0.28222222,-4.149475e-6,698.0315)" />
    <path
       style="fill:#a0a0a0;stroke:none;stroke-width:1px;stroke-linecap:butt;stroke-linejoin:miter;stroke-opacity:1"
       d="m 284.27036,138.57267 c -5.23992,-3.50049 -5.68274,-11.18433 -0.90195,-15.65076 2.17912,-2.03584 8.16586,-2.53543 11.14661,-0.93019 6.16709,3.3212 6.33537,13.33635 0.28393,16.89798 -2.69399,1.58558 -7.91594,1.42834 -10.52859,-0.31703 z"
       id="path3455"
       inkscape:connector-curvature="0"
       transform="matrix(0.28222222,0,0,0.28222222,-4.149475e-6,698.0315)" />
    <path
       style="fill:#a0a0a0;stroke:none;stroke-width:1px;stroke-linecap:butt;stroke-linejoin:miter;stroke-opacity:1"
       d="m 322.43104,139.10704 c -1.01233,-0.4411 -2.72727,-1.81186 -3.81097,-3.04613 -1.73767,-1.9791 -1.97037,-2.66304 -1.97037,-5.79128 0,-6.04506 3.7748,-9.82206 9.81836,-9.8241 5.4097,-0.002 9.08132,4.11772 9.08313,10.19125 7.9e-4,2.71577 -0.28696,3.50791 -1.97123,5.42619 -3.21112,3.65726 -7.22589,4.75344 -11.14892,3.04407 z"
       id="path3457"
       inkscape:connector-curvature="0"
       transform="matrix(0.28222222,0,0,0.28222222,-4.149475e-6,698.0315)" />
    <path
       style="fill:#a0a0a0;stroke:none;stroke-width:1px;stroke-linecap:butt;stroke-linejoin:miter;stroke-opacity:1"
       d="m 276.71067,175.64562 c -3.00069,-1.0861 -4.93464,-3.23405 -5.79773,-6.43931 -0.91993,-3.41638 -0.16994,-6.49135 2.23162,-9.14959 6.07049,-6.7193 16.66694,-2.59685 16.67359,6.48671 0.005,6.81195 -6.65577,11.43736 -13.10748,9.10219 z"
       id="path3459"
       inkscape:connector-curvature="0"
       transform="matrix(0.28222222,0,0,0.28222222,-4.149475e-6,698.0315)" />
    <path
       style="fill:#a0a0a0;stroke:none;stroke-width:1px;stroke-linecap:butt;stroke-linejoin:miter;stroke-opacity:1"
       d="m 320.22197,186.23789 c -4.47522,-2.66695 -6.24187,-9.44418 -3.59391,-13.78701 2.3039,-3.77855 8.80816,-5.61582 12.70436,-3.58863 3.3791,1.75815 4.62381,3.77202 4.85308,7.85203 0.3655,6.50418 -2.60262,10.20551 -8.51661,10.62045 -2.50347,0.17565 -3.72409,-0.0702 -5.44692,-1.09684 z"
       id="path3461"
       inkscape:connector-curvature="0"
       transform="matrix(0.28222222,0,0,0.28222222,-4.149475e-6,698.0315)" />
    <path
       style="fill:#a0a0a0;stroke:none;stroke-width:1px;stroke-linecap:butt;stroke-linejoin:miter;stroke-opacity:1"
       d="m 276.59801,223.43802 c -4.24048,-1.24176 -7.49061,-6.74785 -6.56612,-11.12373 1.06161,-5.0249 4.38927,-7.72467 9.51677,-7.72109 5.82864,0.004 9.65535,3.69889 9.65974,9.32678 0.005,6.92286 -5.99828,11.45429 -12.61039,9.51804 z"
       id="path3463"
       inkscape:connector-curvature="0"
       transform="matrix(0.28222222,0,0,0.28222222,-4.149475e-6,698.0315)" />
    <path
       style="fill:#a0a0a0;stroke:none;stroke-width:1px;stroke-linecap:butt;stroke-linejoin:miter;stroke-opacity:1"
       d="m 314.75816,220.88974 c -5.56059,-3.71471 -5.56059,-12.41951 0,-16.13422 2.89304,-1.93268 8.20711,-1.93268 11.10015,0 5.56059,3.71471 5.56059,12.41951 0,16.13422 -2.89304,1.93268 -8.20711,1.93268 -11.10015,0 z"
       id="path3465"
       inkscape:connector-curvature="0"
       transform="matrix(0.28222222,0,0,0.28222222,-4.149475e-6,698.0315)" />
  </g>
</svg>
