<?xml version="1.0" encoding="UTF-8" standalone="no"?>
<!-- Created with Inkscape (http://www.inkscape.org/) -->

<svg
   xmlns:dc="http://purl.org/dc/elements/1.1/"
   xmlns:cc="http://creativecommons.org/ns#"
   xmlns:rdf="http://www.w3.org/1999/02/22-rdf-syntax-ns#"
   xmlns:svg="http://www.w3.org/2000/svg"
   xmlns="http://www.w3.org/2000/svg"
   xmlns:sodipodi="http://sodipodi.sourceforge.net/DTD/sodipodi-0.dtd"
   xmlns:inkscape="http://www.inkscape.org/namespaces/inkscape"
   width="453.5433"
   height="340.15747"
   id="svg2"
   sodipodi:version="0.32"
   inkscape:version="0.91 r13725"
   sodipodi:docname="after_clustering.svg"
   version="1.0"
   viewBox="0 0 128 95.999997">
  <defs
     id="defs4" />
  <sodipodi:namedview
     id="base"
     pagecolor="#ffffff"
     bordercolor="#666666"
     borderopacity="1.0"
     inkscape:pageopacity="0.0"
     inkscape:pageshadow="2"
     inkscape:zoom="1.64"
     inkscape:cx="226.77165"
     inkscape:cy="145.6885"
     inkscape:document-units="mm"
     inkscape:current-layer="layer1"
     inkscape:window-width="988"
     inkscape:window-height="724"
     inkscape:window-x="1099"
     inkscape:window-y="202"
     width="12.8cm"
     height="9.6cm"
     units="cm"
     showgrid="true"
     grid_units="mm"
     inkscape:object-paths="false"
     inkscape:grid-points="true"
     inkscape:grid-bbox="true"
     inkscape:guide-points="true"
     showguides="true"
     inkscape:guide-bbox="true"
     inkscape:window-maximized="0"
     inkscape:snap-text-baseline="false">
    <sodipodi:guide
       orientation="vertical"
       position="56.476527"
       id="guide3573" />
    <sodipodi:guide
       orientation="horizontal"
       position="11.035643"
       id="guide3579" />
    <sodipodi:guide
       orientation="horizontal"
       position="24.018753"
       id="guide3886" />
    <sodipodi:guide
       orientation="horizontal"
       position="303.15561"
       id="guide4081" />
    <inkscape:grid
       id="GridFromPre046Settings"
       type="xygrid"
       originx="0px"
       originy="0px"
       spacingx="2mm"
       spacingy="2mm"
       color="#3f3fff"
       empcolor="#3f3fff"
       opacity="0.15"
       empopacity="0.38"
       empspacing="5" />
  </sodipodi:namedview>
  <metadata
     id="metadata7">
    <rdf:RDF>
      <cc:Work
         rdf:about="">
        <dc:format>image/svg+xml</dc:format>
        <dc:type
           rdf:resource="http://purl.org/dc/dcmitype/StillImage" />
        <dc:title></dc:title>
      </cc:Work>
    </rdf:RDF>
  </metadata>
  <g
     inkscape:label="Layer 1"
     inkscape:groupmode="layer"
     id="layer1"
     transform="translate(4.149475e-6,-698.0315)">
    <g
       id="g3448">
      <circle
         r="3.1749558"
         cy="712.91638"
         cx="40.977062"
         id="path3362"
         style="fill:#0000ff" />
      <circle
         r="3.1749558"
         style="fill:#0000ff"
         id="circle3364"
         cx="48.247959"
         cy="718.73309" />
      <circle
         r="3.1749558"
         cy="736.76489"
         cx="43.012909"
         id="circle3366"
         style="fill:#0000ff" />
      <circle
         r="3.1749558"
         style="fill:#0000ff"
         id="circle3368"
         cx="42.722076"
         cy="726.29486" />
      <circle
         r="3.1749558"
         cy="721.93231"
         cx="26.435255"
         id="circle3370"
         style="fill:#0000ff" />
      <circle
         r="3.1749558"
         style="fill:#0000ff"
         id="circle3372"
         cx="34.869495"
         cy="719.02399" />
      <circle
         r="3.1749558"
         cy="730.07568"
         cx="34.287827"
         id="circle3374"
         style="fill:#0000ff" />
      <circle
         r="3.1749558"
         style="fill:#0000ff"
         id="circle3376"
         cx="49.992977"
         cy="729.78479" />
    </g>
    <g
       id="g3438">
      <circle
         style="fill:#ff2a2a"
         id="circle3378"
         cx="41.332767"
         cy="751.29688"
         r="3.2653744" />
      <circle
         cy="754.28802"
         cx="50.60545"
         id="circle3380"
         style="fill:#ff2a2a"
         r="3.2653744" />
      <circle
         style="fill:#ff2a2a"
         id="circle3382"
         cx="45.819553"
         cy="773.13251"
         r="3.2653744" />
      <circle
         cy="763.26166"
         cx="50.60545"
         id="circle3384"
         style="fill:#ff2a2a"
         r="3.2653744" />
      <circle
         r="3.2653744"
         style="fill:#ff2a2a"
         id="circle3386"
         cx="31.461851"
         cy="755.18536" />
      <circle
         cy="765.65454"
         cx="30.265379"
         id="circle3388"
         style="fill:#ff2a2a"
         r="3.2653744" />
      <circle
         style="fill:#ff2a2a"
         id="circle3390"
         cx="39.238941"
         cy="764.7572"
         r="3.2653744" />
      <circle
         cy="766.85095"
         cx="58.083424"
         id="circle3392"
         style="fill:#ff2a2a"
         r="3.2653744" />
    </g>
    <g
       id="g4371"
       transform="translate(-1.3766938,-3.9579946)">
      <circle
         style="fill:#008000"
         id="circle3394"
         cx="85.268463"
         cy="727.7052"
         r="3.1749558" />
      <circle
         cy="738.68451"
         cx="93.399796"
         id="circle3396"
         style="fill:#008000"
         r="3.1749558" />
      <circle
         style="fill:#008000"
         id="circle3398"
         cx="91.778564"
         cy="762.05096"
         r="3.1749558" />
      <circle
         cy="748.99963"
         cx="80.474174"
         id="circle3400"
         style="fill:#008000"
         r="3.1749558" />
      <circle
         style="fill:#008000"
         id="circle3402"
         cx="72.447517"
         cy="736.72113"
         r="3.1749558" />
      <circle
         cy="738.80334"
         cx="83.118889"
         id="circle3404"
         style="fill:#008000"
         r="3.1749558" />
      <circle
         style="fill:#008000"
         id="circle3406"
         cx="80.300095"
         cy="762.41736"
         r="3.1749558" />
      <circle
         cy="752.14545"
         cx="93.079773"
         id="circle3408"
         style="fill:#008000"
         r="3.1749558" />
    </g>
    <rect
       style="fill:#00ffff;fill-opacity:0.04460826;stroke:#070000;stroke-width:1.28199995;stroke-linejoin:miter;stroke-miterlimit:4;stroke-dasharray:none;stroke-dashoffset:0;stroke-opacity:1"
       id="rect4497"
       width="107.99999"
       height="82"
       x="11.999995"
       y="704.03149" />
    <path
       style="fill:#000000;fill-opacity:0.04460826;stroke:#070000;stroke-width:2.76982903;stroke-linejoin:miter;stroke-miterlimit:4;stroke-dasharray:none;stroke-dashoffset:0;stroke-opacity:1"
       d="m 45.308235,166.78605 0,-142.682929 188.719515,0 188.71951,0 0,142.682929 0,142.68292 -188.71951,0 -188.719515,0 0,-142.68292 z M 167.74585,276.45427 c 7.57011,-3.66462 8.4344,-14.59411 1.56823,-19.83119 -1.81161,-1.38179 -2.97369,-1.73486 -6.25563,-1.90066 -4.73318,-0.23912 -7.22532,0.84221 -10.08553,4.3761 -3.37515,4.17012 -2.72796,12.11311 1.28247,15.73977 3.36195,3.04022 9.12286,3.7303 13.49046,1.61598 z m 43.94819,-22.50275 c 7.94155,-4.4634 7.66911,-16.20852 -0.47561,-20.5042 -3.41738,-1.80239 -6.94127,-1.81777 -10.41028,-0.0454 -3.85879,1.97149 -6.21599,5.18859 -6.58038,8.9809 -0.95089,9.896 8.86941,16.40043 17.46627,11.56872 l 0,1e-5 z m -97.79216,-4.69298 c 7.6972,-5.34413 6.41762,-16.92264 -2.27141,-20.55314 -8.96159,-3.7444 -18.312427,4.70918 -15.665668,14.16247 0.921982,3.293 4.237318,6.88706 7.299028,7.91267 3.26102,1.09238 7.80991,0.44156 10.63805,-1.522 z m 30.92,-2.65739 c 4.27502,-2.18096 6.70606,-7.73476 5.70993,-13.04457 -0.49611,-2.64451 -4.1159,-6.86478 -6.88082,-8.02228 -1.07917,-0.45178 -3.1371,-0.8154 -4.57317,-0.80803 -10.03854,0.0515 -15.46047,11.75806 -8.90421,19.22523 4.0238,4.58284 9.06977,5.49558 14.64827,2.64965 z m 38.75981,-4.53933 c 6.29706,-2.63108 9.10912,-9.69219 6.31212,-15.84978 -3.88506,-8.55293 -15.49556,-9.24582 -20.47843,-1.22211 -5.96054,9.59801 3.82632,21.39222 14.16631,17.07189 z m 100.85659,-17.33439 c 1.01784,-0.036 4.32742,-3.43491 5.40889,-5.55477 1.99466,-3.90987 1.2246,-9.68374 -1.72682,-12.94747 -2.73485,-3.02425 -8.70008,-4.34211 -12.74193,-2.81498 -4.17138,1.57605 -7.07367,5.95986 -7.07367,10.68453 0,7.31412 6.56172,12.68459 13.58885,11.12184 1.17378,-0.26104 2.31889,-0.48115 2.54468,-0.48915 z m 41.70844,-2.1433 c 3.75349,-2.1997 5.43403,-5.22987 5.43844,-9.80603 0.004,-4.53392 -2.05833,-8.11313 -5.76551,-10.0044 -5.2413,-2.67391 -11.96042,-0.99953 -15.11439,3.76645 -2.255,3.40753 -2.36875,8.81497 -0.25706,12.21984 3.22182,5.19483 10.38294,6.93927 15.69852,3.82414 z m -209.77667,-9.38324 c 11.42105,-5.18787 7.6581,-22.30717 -4.90328,-22.30717 -7.85759,0 -13.361615,7.188 -11.31732,14.77991 1.33371,4.95302 6.16815,8.64661 11.31732,8.64661 1.34147,0 3.54794,-0.50371 4.90328,-1.11935 z m 66.26681,-2.53924 c 6.70896,-1.86325 10.37197,-10.1868 7.21031,-16.38417 -3.2976,-6.46382 -11.16482,-8.62561 -17.09903,-4.69854 -6.63222,4.389 -6.81309,14.73575 -0.33518,19.17449 3.52457,2.41508 6.43978,2.95918 10.2239,1.90822 z m -30.5977,-11.57057 c 4.67997,-2.38754 7.22859,-8.97107 5.50023,-14.20804 -2.90492,-8.802 -14.8457,-10.57665 -20.57998,-3.05862 -1.53179,2.00829 -1.71215,2.73649 -1.71215,6.91285 0,4.17467 0.1807,4.90501 1.70955,6.90944 3.46354,4.54093 10.00477,6.03475 15.08235,3.44437 z m 179.3289,-11.86156 c 5.74596,-3.80249 6.45718,-13.49736 1.3303,-18.13363 -7.11465,-6.43384 -19.09744,-1.23365 -19.09744,8.28776 0,9.47055 9.97841,15.00021 17.76714,9.84587 z m -45.85509,-10.60308 c 8.1188,-3.8712 8.12231,-16.08253 0.006,-20.22326 -7.67205,-3.91399 -16.60428,1.53573 -16.60428,10.13059 0,8.74275 8.53964,13.93527 16.59846,10.09267 l -2.7e-4,0 z m -128.8115,-28.78162 c 2.13179,-0.80545 4.88878,-3.36872 6.0828,-5.6554 0.49707,-0.95192 0.90376,-3.19137 0.90376,-4.97654 0,-6.6707 -4.67153,-11.28049 -11.43159,-11.28049 -6.27631,0 -11.2165,4.96572 -11.2165,11.2745 0,6.34747 4.84216,11.27451 11.08836,11.28272 1.57115,0.002 3.62908,-0.28809 4.57317,-0.64479 z m 137.19512,-6.70732 c 6.32111,-2.38828 9.04034,-10.53018 5.52196,-16.53384 -2.0237,-3.45319 -5.42053,-5.37859 -9.489,-5.37859 -5.21724,0 -8.26542,1.80146 -10.53431,6.22571 -2.05702,4.01112 -0.94054,10.61305 2.25981,13.36261 3.2751,2.81379 8.38022,3.78302 12.24154,2.32411 z m 37.38726,-0.9029 c 2.08658,-1.06589 4.6665,-3.88669 5.44901,-5.95776 1.52712,-4.04185 0.20927,-10.00708 -2.81498,-12.74193 -4.86908,-4.40314 -13.00105,-3.59541 -17.0339,1.69193 -1.74603,2.28917 -2.60872,7.15771 -1.82303,10.28815 0.44695,1.7808 3.59943,5.55857 5.48335,6.57097 3.20984,1.72495 7.53653,1.78484 10.73955,0.14864 z m -74.81729,-6.75158 c 6.38524,-3.22615 8.61813,-10.06209 5.24631,-16.06144 -5.27438,-9.38449 -20.11534,-6.47228 -21.13576,4.14743 -0.51659,5.37637 1.78808,9.73642 6.20759,11.74367 3.08155,1.39956 7.10872,1.47042 9.68186,0.17034 z m -129.53258,-9.86567 c 4.40051,-2.01515 7.1297,-8.50591 5.56721,-13.24032 -0.94952,-2.87705 -4.01246,-6.3521 -6.5236,-7.40132 -4.74209,-1.98138 -11.2169,-0.11117 -13.95862,4.03186 -4.42867,6.69217 -0.87681,15.8828 6.80408,17.60593 2.78532,0.62486 5.22556,0.32516 8.11093,-0.99615 z m 54.65474,-0.67024 c 4.50291,-2.08478 7.0122,-5.81689 7.0122,-10.42935 0,-4.61247 -2.50929,-8.34458 -7.0122,-10.42936 -3.09003,-1.43063 -6.03678,-1.43381 -9.17156,-0.01 -9.33336,4.23956 -8.86824,17.71308 0.72961,21.13518 3.20484,1.14269 5.5586,1.06835 8.44195,-0.26659 z m -24.77669,-12.7171 c 4.41739,-2.08162 7.12743,-8.54009 5.56721,-13.267615 -0.94952,-2.877048 -4.01246,-6.352097 -6.5236,-7.401323 -9.40435,-3.929384 -19.07071,5.857579 -14.96118,15.147858 2.71992,6.14884 9.55462,8.51948 15.91757,5.52108 z m 143.50776,-8.10494 c 5.17384,-1.43692 8.71679,-6.547815 8.27041,-11.930522 -0.63682,-7.679227 -8.2143,-12.471793 -15.38762,-9.732278 -9.89181,3.777717 -9.83678,17.877918 0.0836,21.41597 2.84542,1.0148 4.10879,1.05914 7.03363,0.24683 z M 98.201845,95.11645 c 3.023695,-1.263378 4.383505,-2.563439 5.715705,-5.464549 2.74489,-5.977526 -0.0231,-13.320011 -5.865412,-15.558758 -7.608789,-2.91566 -15.722997,2.550743 -15.722997,10.592313 0,8.314141 8.138565,13.662525 15.872704,10.430994 z M 128.41778,84.700322 c 2.77131,-1.403334 4.04919,-2.649705 5.36997,-5.237544 3.55863,-6.9725 -1.17191,-15.566769 -8.92217,-16.20948 -4.29172,-0.355903 -5.90743,0.100501 -8.54072,2.412563 -2.94658,2.587125 -4.11767,5.073448 -4.11767,8.742138 0,4.569604 2.88137,9.006722 6.88153,10.597116 2.3713,0.942786 7.1753,0.785829 9.32906,-0.304793 z m 48.06782,-1.196183 c 3.92551,-2.008101 6.41938,-7.07048 5.78025,-11.733474 -1.22746,-8.95526 -12.03601,-13.035053 -18.66569,-7.045542 -6.96572,6.293113 -4.61928,17.038046 4.29133,19.651074 2.42503,0.711137 6.25991,0.322009 8.59411,-0.872058 z m -25.71032,-20.67077 c 2.48335,-1.284191 5.31274,-5.278766 5.8057,-8.196593 1.4955,-8.851798 -7.72074,-16.016864 -15.85115,-12.3233 -9.19084,4.175313 -9.34135,15.965148 -0.2643,20.703572 3.06349,1.599207 6.99757,1.529117 10.30975,-0.183679 z"
       id="path4555"
       inkscape:connector-curvature="0"
       transform="matrix(0.28222222,0,0,0.28222222,-4.149475e-6,698.0315)" />
  </g>
</svg>
